<svg width="308" height="308" viewBox="0 0 308 308" fill="none" xmlns="http://www.w3.org/2000/svg">
<circle cx="154" cy="154" r="154" fill="#F9F7F4"/>
<g clip-path="url(#clip0_1353_2634)">
<path d="M144.735 141.877H145.41C149.235 141.877 149.194 141.877 148.222 145.41C147.976 146.304 147.618 146.659 146.639 146.623C144.671 146.555 142.697 146.678 140.736 146.568C139.413 146.493 138.899 146.932 138.646 148.193C136.884 156.895 135.042 165.587 133.226 174.28C133.104 174.865 132.983 175.447 132.851 176.028C131.214 183.3 125.277 186.694 117.126 185.28C116.309 185.14 115.894 184.821 116.356 183.98C116.487 183.681 116.59 183.372 116.663 183.056C116.937 182.175 116.974 181.106 117.548 180.456C118.121 179.806 119.32 180.375 120.248 180.293C123.677 179.968 126.077 177.777 126.894 173.925C128.608 165.874 130.289 157.815 131.936 149.747C132.581 146.61 132.554 146.607 129.26 146.607H128.247C124.821 146.607 124.872 146.607 125.209 143.34C125.334 142.192 125.716 141.747 126.968 141.841C128.531 141.958 130.124 141.77 131.693 141.906C133.175 142.033 133.759 141.51 133.999 140.125C134.414 137.729 134.964 135.35 135.561 132.973C137.347 125.936 143.466 122.932 150.888 124.304C151.678 124.45 151.982 124.733 151.729 125.49C151.607 125.848 151.523 126.222 151.422 126.586C151.196 127.425 151.192 128.435 150.676 129.047C150.109 129.716 149.035 129.095 148.178 129.18C144.803 129.524 142.687 131.322 141.741 134.339C141.093 136.403 140.783 138.565 140.26 140.664C140.013 141.659 140.412 141.909 141.36 141.87C142.484 141.841 143.611 141.877 144.735 141.877Z" fill="#0193E1"/>
<path d="M73.2872 150.436C77.3105 145.823 84.9251 145.853 88.189 151.132C89.7112 148.957 91.7397 147.556 94.4231 147.159C100.35 146.282 104.772 149.545 105.069 155.406C105.335 160.607 105.136 165.809 105.173 171.01C105.173 171.744 104.89 171.985 104.188 171.894C104.13 171.894 104.076 171.894 104.019 171.894C102.517 171.816 100.593 172.489 99.6311 171.634C98.7333 170.837 99.3847 168.971 99.3712 167.58C99.3341 164.277 99.3712 160.975 99.3712 157.672C99.3712 154.051 97.7814 152.27 94.6188 152.253C91.4562 152.237 89.3872 154.366 89.3467 157.744C89.3095 162.022 89.296 166.299 89.3703 170.577C89.3906 171.679 89.0328 171.975 87.9594 171.9C86.5115 171.799 84.6179 172.32 83.7235 171.617C82.829 170.915 83.4501 168.988 83.4332 167.603C83.3927 164.19 83.4332 160.777 83.4163 157.37C83.3961 154.031 81.776 152.273 78.7349 152.234C75.6431 152.191 73.5336 154.184 73.483 157.357C73.4121 161.687 73.4188 166.02 73.483 170.359C73.483 171.487 73.3378 172.063 71.9709 171.92C70.5296 171.767 68.5281 172.339 67.7653 171.617C67.0025 170.896 67.4953 168.978 67.4919 167.58C67.4919 161.462 67.5256 155.345 67.4547 149.227C67.4547 147.998 67.7923 147.546 69.0411 147.738C69.5455 147.776 70.0522 147.776 70.5566 147.738C73.1522 147.741 73.1522 147.741 73.2872 150.436Z" fill="black"/>
<path d="M211.855 155.052C210.309 157.846 208.756 160.651 207.194 163.468C205.844 165.903 204.494 168.325 203.198 170.789C202.786 171.582 202.297 171.92 201.382 171.855C200.429 171.756 199.469 171.756 198.516 171.855C196.943 172.063 196.326 171.624 196.154 169.976C195.421 163.033 194.547 156.105 193.636 149.172C193.474 147.943 193.821 147.647 194.986 147.774C196.586 147.946 198.698 147.091 199.66 148.122C200.508 149.025 200.17 150.992 200.295 152.497C200.602 156.2 200.876 159.905 201.159 163.601C201.834 163.728 201.864 163.211 202.02 162.951C204.659 158.303 207.305 153.654 209.881 148.973C210.367 148.086 210.91 147.657 211.96 147.806C212.521 147.852 213.085 147.862 213.647 147.836C216.786 147.868 216.763 147.871 217.185 150.921C217.759 155.046 218.376 159.171 218.98 163.293C219.026 163.434 219.093 163.567 219.18 163.689C219.834 163.51 219.855 162.958 220.054 162.551C222.308 158.001 224.573 153.489 226.777 148.931C227.196 148.07 227.702 147.722 228.704 147.79C230.102 147.881 231.513 147.813 232.873 147.813C233.244 148.463 232.758 148.821 232.556 149.214C228.887 156.395 225.181 163.556 221.539 170.75C221.093 171.631 220.526 171.91 219.591 171.855C218.086 171.767 216.088 172.307 215.203 171.569C214.319 170.831 214.528 168.858 214.272 167.421C213.577 163.319 212.902 159.21 212.216 155.104L211.855 155.052Z" fill="#0193E1"/>
<path d="M150.558 171.669C147.605 171.669 147.588 171.669 148.196 168.987C150.622 158.26 153.083 147.556 155.456 136.806C155.702 135.704 156.131 135.343 157.224 135.473C158.645 135.639 160.6 134.859 161.342 135.844C161.896 136.588 160.978 138.366 160.684 139.676C158.506 149.4 156.323 159.122 154.136 168.841C153.515 171.666 153.515 171.669 150.558 171.669Z" fill="#0193E1"/>
<path d="M112.392 154.089C112.392 148.511 112.412 142.933 112.368 137.355C112.368 136.35 112.54 135.85 113.718 135.973C115.21 136.132 117.185 135.388 118.106 136.249C119.028 137.111 118.373 139.019 118.376 140.475C118.4 150.383 118.376 160.304 118.42 170.203C118.42 171.47 118.238 172.111 116.732 171.912C115.355 171.73 113.543 172.459 112.682 171.646C111.821 170.833 112.429 169.081 112.415 167.745C112.368 163.184 112.392 158.637 112.392 154.089Z" fill="black"/>
<path d="M176.044 154.213C176.067 151.158 175.598 150.888 172.692 152.13C171.672 152.559 170.755 153.184 169.995 153.968C169.236 154.752 168.651 155.677 168.277 156.686C167.903 157.696 167.748 158.768 167.82 159.838C167.893 160.908 168.192 161.951 168.699 162.905C169.334 164.121 169.097 164.602 168.024 165.298C165.533 166.923 165.574 166.975 164.345 164.284C162.043 159.248 163.454 153.609 167.94 149.893C172.01 146.519 178.066 146.239 182.987 149.305L176.044 154.213Z" fill="#43C8EC"/>
<path d="M175.988 164.443C176.04 164.578 176.082 164.717 176.113 164.859C176.14 167.547 176.356 167.68 179.013 166.663C180.114 166.248 181.107 165.605 181.921 164.779C182.735 163.953 183.351 162.965 183.723 161.884C184.096 160.803 184.216 159.656 184.076 158.525C183.937 157.395 183.54 156.307 182.914 155.341C182.337 154.46 182.212 154.018 183.208 153.335C186.134 151.326 186.165 151.297 187.596 154.531C188.677 156.991 188.9 159.722 188.23 162.314C187.561 164.906 186.035 167.218 183.883 168.903C179.462 172.283 173.251 172.579 168.86 169.497L175.988 164.443Z" fill="#0193E1"/>
<path d="M242.247 150.593C241.461 149.588 241.572 151.243 241.086 151.178C240.725 150.989 240.857 150.365 240.324 150.284C239.858 150.58 240.303 151.139 239.807 151.584V148.441L240.05 148.366C240.388 149.042 240.705 149.721 241.107 150.547C241.522 149.812 241.853 149.221 242.183 148.632L242.247 148.577V150.593Z" fill="#0193E1"/>
<path d="M238.815 148.447C237.003 149.077 238.252 150.569 237.685 151.58C236.901 150.699 238.272 149.061 236.253 148.447H238.815Z" fill="#0193E1"/>
</g>
<defs>
<clipPath id="clip0_1353_2634">
<rect width="308" height="158" fill="white" transform="translate(0 75)"/>
</clipPath>
</defs>
</svg>
