<svg class="animated" id="freepik_stories-newsletter" xmlns="http://www.w3.org/2000/svg" viewBox="0 0 500 500" version="1.1" xmlns:xlink="http://www.w3.org/1999/xlink" xmlns:svgjs="http://svgjs.com/svgjs"><style>svg#freepik_stories-newsletter:not(.animated) .animable {opacity: 0;}svg#freepik_stories-newsletter.animated #freepik--background-simple--inject-344 {animation: 1s 1 forwards cubic-bezier(.36,-0.01,.5,1.38) zoomOut;animation-delay: 0s;}svg#freepik_stories-newsletter.animated #freepik--Screen--inject-344 {animation: 1s 1 forwards cubic-bezier(.36,-0.01,.5,1.38) slideRight,1.5s Infinite  linear floating;animation-delay: 0s,1s;}svg#freepik_stories-newsletter.animated #freepik--Plants--inject-344 {animation: 1s 1 forwards cubic-bezier(.36,-0.01,.5,1.38) slideLeft;animation-delay: 0s;}svg#freepik_stories-newsletter.animated #freepik--Character--inject-344 {animation: 1s 1 forwards cubic-bezier(.36,-0.01,.5,1.38) slideLeft;animation-delay: 0s;}            @keyframes zoomOut {                0% {                    opacity: 0;                    transform: scale(1.5);                }                100% {                    opacity: 1;                    transform: scale(1);                }            }                    @keyframes slideRight {                0% {                    opacity: 0;                    transform: translateX(30px);                }                100% {                    opacity: 1;                    transform: translateX(0);                }            }                    @keyframes floating {                0% {                    opacity: 1;                    transform: translateY(0px);                }                50% {                    transform: translateY(-10px);                }                100% {                    opacity: 1;                    transform: translateY(0px);                }            }                    @keyframes slideLeft {                0% {                    opacity: 0;                    transform: translateX(-30px);                }                100% {                    opacity: 1;                    transform: translateX(0);                }            }        </style><g id="freepik--background-simple--inject-344" style="transform-origin: 243.811px 230.046px 0px;" class="animable"><path d="M294.68,389.43c41.44-8.12,78.57-27.05,104.5-59.94,41.29-52.37,49.31-150.59-6.19-207.74-25.43-26.19-63.28-40.57-97.07-48.63-36.33-8.67-77.43-11.4-110,3.26C133.34,100,109.82,185.07,76.1,220.67s-29,111.39,32.15,139.39c32.34,14.81,66.6,25.6,101,30.87a240.61,240.61,0,0,0,47.72,3A257.31,257.31,0,0,0,294.68,389.43Z" style="fill: rgb(19, 99, 223); transform-origin: 243.811px 230.046px 0px;" id="ele6v012r6hoj" class="animable"></path><g id="elve08xf9525"><path d="M294.68,389.43c41.44-8.12,78.57-27.05,104.5-59.94,41.29-52.37,49.31-150.59-6.19-207.74-25.43-26.19-63.28-40.57-97.07-48.63-36.33-8.67-77.43-11.4-110,3.26C133.34,100,109.82,185.07,76.1,220.67s-29,111.39,32.15,139.39c32.34,14.81,66.6,25.6,101,30.87a240.61,240.61,0,0,0,47.72,3A257.31,257.31,0,0,0,294.68,389.43Z" style="fill: rgb(255, 255, 255); opacity: 0.7; transform-origin: 243.811px 230.046px 0px;" class="animable"></path></g></g><g id="freepik--Screen--inject-344" style="transform-origin: 277.365px 218.92px 0px;" class="animable animator-active"><rect x="175.48" y="68" width="203.77" height="301.84" style="fill: rgb(255, 255, 255); stroke: rgb(38, 50, 56); stroke-linecap: round; stroke-linejoin: round; transform-origin: 277.365px 218.92px 0px;" id="elshyzukxwku" class="animable"></rect><rect x="372.8" y="68" width="6.44" height="301.84" style="fill: rgb(19, 99, 223); stroke: rgb(38, 50, 56); stroke-linecap: round; stroke-linejoin: round; transform-origin: 376.02px 218.92px 0px;" id="elrsqsjzhpn9s" class="animable"></rect><rect x="372.8" y="192.53" width="6.44" height="59.17" style="fill: rgb(255, 255, 255); stroke: rgb(38, 50, 56); stroke-linecap: round; stroke-linejoin: round; transform-origin: 376.02px 222.115px 0px;" id="elnh1i0r4zq3" class="animable"></rect><rect x="175.48" y="68" width="203.77" height="23.28" style="fill: rgb(38, 50, 56); stroke: rgb(38, 50, 56); stroke-linecap: round; stroke-linejoin: round; transform-origin: 277.365px 79.64px 0px;" id="elm4dhikoscaj" class="animable"></rect><rect x="192.36" y="74.83" width="174.84" height="10.05" rx="3.12" style="fill: rgb(255, 255, 255); stroke: rgb(38, 50, 56); stroke-linecap: round; stroke-linejoin: round; transform-origin: 279.78px 79.855px 0px;" id="elyuzfk6fhlvk" class="animable"></rect><path d="M344.7,274.24c0,2.82-32.52,5.1-72.64,5.1s-72.65-2.28-72.65-5.1,32.53-5.11,72.65-5.11S344.7,271.42,344.7,274.24Z" style="fill: rgb(38, 50, 56); transform-origin: 272.055px 274.235px 0px;" id="el99y8082wz8" class="animable"></path><polygon points="348.08 172.4 348.31 172.22 347.86 172.22 274.14 116.81 200.43 172.22 199.97 172.22 200.21 172.39 199.97 172.57 200.45 172.57 274.8 226.05 347.84 172.57 348.31 172.57 348.08 172.4" style="fill: rgb(19, 99, 223); stroke: rgb(38, 50, 56); stroke-linecap: round; stroke-linejoin: round; transform-origin: 274.14px 171.43px 0px;" id="elq52jxydxv8" class="animable"></polygon><rect x="223.2" y="122.35" width="99.5" height="123.5" style="fill: rgb(255, 255, 255); stroke: rgb(38, 50, 56); stroke-linecap: round; stroke-linejoin: round; transform-origin: 272.95px 184.1px 0px;" id="elqho73qzxh1" class="animable"></rect><path d="M294.17,156c0,14.31-6.5,22.55-13.22,22.55-3.47,0-5.49-1.74-5.71-4.92-1.45,3.18-3.9,5-7.45,4.92-5.41-.08-7.29-4.63-6.64-11.06l.79-7.23c.65-6.57,3.61-10.69,9-10.55a6,6,0,0,1,6.22,4.77l.5-4.48h4.92l-2.17,20.74c-.22,1.66.29,3.11,2.09,3.11,5.57,0,7.45-10.63,7.38-17.71,0-10-4.7-16.55-15.54-16.55-14.45,0-21.17,12-21.17,28.19,0,12.5,5.7,20,18.28,20,5.06,0,9.68-1,14.23-4.56l-.43,5c-4.41,3-9,3.9-14.09,3.9-15.9,0-22.84-9.75-22.84-24.64,0-17.2,8.24-32.3,26.16-32.3C289,135.16,294.17,144,294.17,156Zm-27.39,4.77-.65,6.5c-.43,3.76.73,6.43,4.12,6.51s5.13-2.53,5.57-6.44l.72-6.93c.36-3.4-1-5.78-4.19-5.78C269,154.52,267.22,156.84,266.78,160.74Z" style="fill: rgb(38, 50, 56); transform-origin: 271.245px 163.65px 0px;" id="elsa9xelxl7d" class="animable"></path><polygon points="199.97 172.22 199.97 258.21 348.31 258.21 348.31 172.22 274.14 215.22 199.97 172.22" style="fill: rgb(19, 99, 223); stroke: rgb(38, 50, 56); stroke-linecap: round; stroke-linejoin: round; transform-origin: 274.14px 215.215px 0px;" id="elihl62zq2txc" class="animable"></polygon><polyline points="199.97 258.21 274.14 215.22 348.31 258.21" style="fill: none; stroke: rgb(38, 50, 56); stroke-linecap: round; stroke-linejoin: round; transform-origin: 274.14px 236.715px 0px;" id="elw4gb1ibik3" class="animable"></polyline><rect x="231.24" y="295.98" width="82.59" height="17.47" style="fill: rgb(19, 99, 223); stroke: rgb(38, 50, 56); stroke-linecap: round; stroke-linejoin: round; transform-origin: 272.535px 304.715px 0px;" id="elrad1d1qrcaj" class="animable"></rect><rect x="231.24" y="320.59" width="82.59" height="17.47" style="fill: rgb(19, 99, 223); stroke: rgb(38, 50, 56); stroke-linecap: round; stroke-linejoin: round; transform-origin: 272.535px 329.325px 0px;" id="elqi743an93gm" class="animable"></rect><line x1="201.09" y1="147.61" x2="208.53" y2="153.26" style="fill: none; stroke: rgb(38, 50, 56); stroke-linecap: round; stroke-linejoin: round; transform-origin: 204.81px 150.435px 0px;" id="eluwenlykykv" class="animable"></line><line x1="194.95" y1="142.94" x2="197.98" y2="145.24" style="fill: none; stroke: rgb(38, 50, 56); stroke-linecap: round; stroke-linejoin: round; transform-origin: 196.465px 144.09px 0px;" id="elt0jn945vgj" class="animable"></line><line x1="204.73" y1="106.56" x2="217.22" y2="118.51" style="fill: none; stroke: rgb(38, 50, 56); stroke-linecap: round; stroke-linejoin: round; transform-origin: 210.975px 112.535px 0px;" id="elgpjl8gwc8hs" class="animable"></line><line x1="243.87" y1="106.73" x2="245.45" y2="111.45" style="fill: none; stroke: rgb(38, 50, 56); stroke-linecap: round; stroke-linejoin: round; transform-origin: 244.66px 109.09px 0px;" id="elnxqkx5jx2f" class="animable"></line><line x1="242.19" y1="101.68" x2="243.11" y2="104.44" style="fill: none; stroke: rgb(38, 50, 56); stroke-linecap: round; stroke-linejoin: round; transform-origin: 242.65px 103.06px 0px;" id="el5bf4z92v9pu" class="animable"></line><line x1="350.24" y1="142.94" x2="336.66" y2="153.26" style="fill: none; stroke: rgb(38, 50, 56); stroke-linecap: round; stroke-linejoin: round; transform-origin: 343.45px 148.1px 0px;" id="ely06ptbb0khd" class="animable"></line><line x1="336.3" y1="110.55" x2="327.98" y2="118.51" style="fill: none; stroke: rgb(38, 50, 56); stroke-linecap: round; stroke-linejoin: round; transform-origin: 332.14px 114.53px 0px;" id="elny2o036x22h" class="animable"></line><line x1="340.46" y1="106.56" x2="337.68" y2="109.23" style="fill: none; stroke: rgb(38, 50, 56); stroke-linecap: round; stroke-linejoin: round; transform-origin: 339.07px 107.895px 0px;" id="el58w0fo8p1np" class="animable"></line><line x1="303" y1="101.68" x2="299.74" y2="111.45" style="fill: none; stroke: rgb(38, 50, 56); stroke-linecap: round; stroke-linejoin: round; transform-origin: 301.37px 106.565px 0px;" id="elfno689fexxb" class="animable"></line><line x1="274.22" y1="101.68" x2="274.22" y2="109.28" style="fill: none; stroke: rgb(38, 50, 56); stroke-linecap: round; stroke-linejoin: round; transform-origin: 274.22px 105.48px 0px;" id="elvla8qi6gmg" class="animable"></line></g><g id="freepik--Plants--inject-344" style="transform-origin: 397.188px 334.73px 0px;" class="animable"><ellipse cx="395.07" cy="422.15" rx="27.74" ry="7.4" style="fill: rgb(19, 99, 223); transform-origin: 395.07px 422.15px 0px;" id="ely5wsyjn75" class="animable"></ellipse><g id="eldp7kx70kv38"><ellipse cx="395.07" cy="422.15" rx="27.74" ry="7.4" style="fill: rgb(255, 255, 255); opacity: 0.5; transform-origin: 395.07px 422.15px 0px;" class="animable"></ellipse></g><path d="M353.58,262.51a4,4,0,0,1,3.25-5.08c3.4-.46,7.57,4.1,8.89,6.86.11.24,1.47,4.18,1.4,4.18s-6,.13-8.47-.94C356.55,266.61,354.14,264.87,353.58,262.51Zm87.23-10.46c-.5,2.37-2.87,4.18-4.93,5.15s-7,1.14-8.18,1.16c-.65.78-1.34,1.61-2.08,2.55-1.3,1.66-2.74,3.55-4.18,5.71-.38.57-.77,1.21-1.16,1.81.87-.88,2.08-2.08,2.21-2.19,2.39-1.9,8.13-4.18,11-2.29a4.05,4.05,0,0,1,.7,6c-1.53,1.87-4.46,2.39-6.75,2.3s-6.85-2.26-7.82-2.75c-.84,1.36-1.67,2.77-2.45,4.29a52.19,52.19,0,0,0-3.59,8.6l.17.09c.7-.92,2.21-2.81,2.36-3,2.16-2.16,7.62-5,10.67-3.48a4.05,4.05,0,0,1,1.36,5.87c-1.32,2-4.18,2.87-6.46,3-2.62.18-8.06-1.87-8.26-1.95a71.82,71.82,0,0,0-2,9.05c-.35,2.26-.61,4.57-.86,6.88.47-.66,2.46-3.14,2.62-3.3,2.17-2.16,7.63-5.05,10.67-3.48a4,4,0,0,1,1.37,5.87c-1.32,2-4.18,2.87-6.46,3-2.57.18-7.78-1.76-8.22-1.93l-.33,3.16c-.33,3.44-.65,6.89-1.07,10.29-.15,1.17-.34,2.33-.52,3.49.74-1,2.12-2.69,2.26-2.82,2.17-2.16,7.63-5.06,10.67-3.49a4.06,4.06,0,0,1,1.36,5.88c-1.32,2-4.18,2.87-6.46,3s-6.71-1.38-7.94-1.83c-.32,1.92-.68,3.82-1.12,5.68-.21.79-.37,1.62-.61,2.37s-.45,1.52-.68,2.27c-.52,1.53-1,2.95-1.51,4.36-.26.72-.52,1.39-.77,2.08.6-1.08,1.59-2.79,1.69-2.93,1.82-2.47,6.78-6.15,10-5.06a4,4,0,0,1,2.23,5.6c-1,2.2-3.69,3.46-5.92,4-2.46.55-7.73-.52-8.38-.65-.64,1.69-1.28,3.33-1.91,4.85-2,4.83-3.8,8.78-5.12,11.53l-.21.44h9.61L402.53,416a9.24,9.24,0,0,1-9.23,8.77h0a9.25,9.25,0,0,1-9.24-8.77l-3.31-64.68h10.31c-.05-.45-.1-.93-.16-1.46-.35-3-.9-7.26-1.8-12.34-.25-1.47-.55-3-.87-4.62-.66.09-6,.77-8.4,0-2.18-.67-4.78-2.13-5.61-4.4a4.06,4.06,0,0,1,2.65-5.42c3.32-.85,8,3.2,9.62,5.79.1.17,1.11,2.27,1.6,3.35-.19-1-.38-1.92-.6-2.91-.31-1.44-.68-3-1-4.41-.21-.76-.43-1.52-.64-2.28s-.49-1.5-.73-2.26c-.38-1.11-.82-2.23-1.26-3.36-1.45.4-5.71,1.51-7.9,1.19s-5.05-1.38-6.21-3.5a4,4,0,0,1,1.8-5.76c3.15-1.34,8.38,1.95,10.38,4.27.06.07.44.61.87,1.24-.46-1.08-.93-2.16-1.43-3.25-1.44-3.06-3-6.15-4.56-9.24-.33-.64-.64-1.29-1-1.94-1.22.34-5.82,1.58-8.11,1.24s-5-1.37-6.22-3.49a4.06,4.06,0,0,1,1.8-5.76c3.15-1.34,8.38,1.95,10.38,4.27.07.08.52.72,1,1.43-.82-1.69-1.62-3.39-2.36-5.1a71.61,71.61,0,0,1-3.25-9c-.43.12-5.8,1.68-8.35,1.31-2.26-.33-5.05-1.38-6.21-3.5a4.05,4.05,0,0,1,1.79-5.76c3.16-1.34,8.39,1.95,10.39,4.27.14.16,1.73,2.48,2.26,3.33l0-.11a53.44,53.44,0,0,1-1.56-9.27,75.67,75.67,0,0,1-.2-8.4c.06-2.6.28-5,.49-7.08.12-1.13.25-2.17.39-3.14l-.06,0c-.06,0-1.2-4-1.25-4.22-.5-3,.3-9.15,3.34-10.72a4.06,4.06,0,0,1,5.58,2.29c.89,2.25-.08,5.07-1.27,7s-5.18,4.79-6.17,5.48c-.12,1-.24,2.08-.34,3.27-.16,2.1-.33,4.47-.33,7.07,0,.69,0,1.43,0,2.15.24-1.22.58-2.89.63-3,.94-2.91,4.48-8,7.9-8a4.07,4.07,0,0,1,3.9,4.61c-.25,2.41-2.41,4.46-4.36,5.64s-7,1.89-8.05,2c.05,1.6.14,3.23.33,4.94a51.66,51.66,0,0,0,1.74,9.14l.2,0c.07-1.15.29-3.56.33-3.75.62-3,3.58-8.43,7-8.8a4.06,4.06,0,0,1,4.38,4.15c0,2.42-1.9,4.7-3.71,6.09-2.09,1.6-7.76,2.89-8,2.94a72.27,72.27,0,0,0,3.34,8.63c1,2.08,2,4.15,3.08,6.22,0-.81.32-4,.36-4.2.62-3,3.58-8.43,7-8.8a4.06,4.06,0,0,1,4.38,4.16c0,2.41-1.9,4.69-3.72,6.08-2,1.57-7.45,2.82-7.91,2.93.49.93,1,1.87,1.47,2.81,1.61,3.05,3.25,6.11,4.77,9.18.53,1.06,1,2.12,1.5,3.19.09-1.21.29-3.41.33-3.6.61-3,3.57-8.42,7-8.79a4,4,0,0,1,4.37,4.15c0,2.42-1.9,4.7-3.71,6.09s-6.36,2.55-7.64,2.86c.79,1.78,1.55,3.56,2.2,5.35.27.78.59,1.55.8,2.31s.46,1.52.69,2.27c.41,1.56.8,3,1.14,4.48.19.74.34,1.44.51,2.16-.1-1.24-.22-3.21-.21-3.39.16-3.05,2.26-8.86,5.57-9.75a4.07,4.07,0,0,1,5,3.44,5.43,5.43,0,0,1,.05.9,15.67,15.67,0,0,1,2.11,7.66c0,.19-.31,2.5-.5,3.68.37-.91.73-1.82,1.1-2.77.54-1.37,1.06-2.83,1.57-4.24.24-.75.48-1.5.73-2.26s.42-1.51.64-2.28c.3-1.13.54-2.32.79-3.5-1.42-.46-5.58-1.89-7.23-3.36s-3.45-3.94-3.26-6.35a4.06,4.06,0,0,1,4.68-3.81c3.37.62,5.91,6.25,6.31,9.28,0,.1,0,.75,0,1.52.21-1.16.42-2.31.59-3.5.49-3.35.89-6.78,1.3-10.22.08-.72.18-1.43.27-2.15-1.2-.38-5.72-1.89-7.45-3.44s-3.45-3.93-3.26-6.34a4.06,4.06,0,0,1,4.68-3.81c3.37.62,5.91,6.25,6.3,9.28,0,.11,0,.89.05,1.76.25-1.87.52-3.73.85-5.56a72.14,72.14,0,0,1,2.25-9.3c-.42-.14-5.76-1.8-7.68-3.51-1.7-1.53-3.45-3.94-3.25-6.35a4,4,0,0,1,4.67-3.81c3.37.62,5.91,6.25,6.31,9.28,0,.22.07,3,.05,4l0-.11a53,53,0,0,1,3.82-8.59,72.23,72.23,0,0,1,4.47-7.11c1.48-2.14,3-4,4.3-5.64.73-.88,1.42-1.67,2.06-2.4h-.07c-.07,0,1.18-4,1.29-4.21,1.24-2.8,5.29-7.47,8.7-7.1A4.05,4.05,0,0,1,440.81,252.05Zm-39.29,82.2c-.58-.28-5.07-2.51-6.83-4.4a45,45,0,0,1-4.68,2.2c.4,1.76.77,3.48,1.09,5.1,1,5.12,1.67,9.42,2.08,12.44.09.64.16,1.21.23,1.74h.23c.23-.45.48-.92.75-1.47,1.36-2.68,3.26-6.55,5.31-11.29C400.3,337.21,400.91,335.75,401.52,334.25Zm18-65.4s1.09-4,1.13-4.26c.42-3-.54-9.13-3.63-10.62a4.06,4.06,0,0,0-5.52,2.44c-.82,2.28.23,5.06,1.47,7C414.38,265.64,419.47,268.85,419.47,268.85Z" style="fill: rgb(38, 50, 56); transform-origin: 397.188px 332.34px 0px;" id="elr2i7s73nxto" class="animable"></path></g><g id="freepik--Character--inject-344" style="transform-origin: 140.624px 271.45px 0px;" class="animable"><ellipse cx="146.06" cy="422.99" rx="43.78" ry="10.21" style="fill: rgb(19, 99, 223); transform-origin: 146.06px 422.99px 0px;" id="el17pcujfyp1e" class="animable"></ellipse><g id="elmw9gipipgc"><ellipse cx="146.06" cy="422.99" rx="43.78" ry="10.21" style="fill: rgb(255, 255, 255); opacity: 0.5; transform-origin: 146.06px 422.99px 0px;" class="animable"></ellipse></g><path d="M162.2,182s6,3.5,7,10.5,3.9,37,3.9,37,10.28,4.95,10.6,7,.29,8.27-8.35,12.38-11.77.18-16.15-8.38S162.2,182,162.2,182Z" style="fill: rgb(38, 50, 56); stroke: rgb(38, 50, 56); stroke-linecap: round; stroke-linejoin: round; transform-origin: 170.802px 216.259px 0px;" id="elf4iyc2t64l" class="animable"></path><path d="M184,238.53s-2,5.16-5.8,5.16-2.5-7.85-.59-9.76,3.94-3.59,6.94-.86S184,238.53,184,238.53Z" style="fill: rgb(255, 255, 255); stroke: rgb(38, 50, 56); stroke-linecap: round; stroke-linejoin: round; transform-origin: 180.755px 237.664px 0px;" id="eldybivc36zjs" class="animable"></path><path d="M171.58,231.78a8.32,8.32,0,0,0-5.86,6.64" style="fill: none; stroke: rgb(38, 50, 56); stroke-linecap: round; stroke-linejoin: round; transform-origin: 168.65px 235.1px 0px;" id="elw52grl2wvzr" class="animable"></path><path d="M188.12,229.8v-6.29c0-1.91,1.37-4.64-.27-4.64s-2.73,2.19-2.73,3.55V226Z" style="fill: rgb(255, 255, 255); stroke: rgb(38, 50, 56); stroke-linecap: round; stroke-linejoin: round; transform-origin: 186.888px 224.335px 0px;" id="elbw6jxojapfq" class="animable"></path><path d="M144.53,408.28S160.84,413.63,163,414s1.5,2.61-1,4.23-6.23,2.11-15.06.87-10.45-2.86-11.08-2.62-2.11,1.5-4.23.5-3.11-5-1-6.84S144.53,408.28,144.53,408.28Z" style="fill: rgb(38, 50, 56); stroke: rgb(38, 50, 56); stroke-linecap: round; stroke-linejoin: round; transform-origin: 146.881px 414.039px 0px;" id="elo5amtkzy2gk" class="animable"></path><path d="M164.23,415.26c-4.8,3.83-17.41,2.53-23.71.79a27.69,27.69,0,0,0-10.58-.83,3.76,3.76,0,0,0,1.65,1.77c2.12,1,3.61-.25,4.23-.5s2.24,1.37,11.08,2.62,12.57.74,15.06-.87C163.41,417.29,164.22,416.13,164.23,415.26Z" style="fill: rgb(38, 50, 56); stroke: rgb(38, 50, 56); stroke-linecap: round; stroke-linejoin: round; transform-origin: 147.085px 417.424px 0px;" id="el3a00e03atiq" class="animable"></path><path d="M133.21,412.14A72,72,0,0,0,143.54,420c4.6,2.61,6.22,4.35,4,7s-4,2-13.19,0a43.39,43.39,0,0,1-14.68-5.85s-.38,1.24-3.36.37-2.74-3.23-2-5.22S124.62,408,133.21,412.14Z" style="fill: rgb(38, 50, 56); stroke: rgb(38, 50, 56); stroke-linecap: round; stroke-linejoin: round; transform-origin: 131.178px 419.756px 0px;" id="eloefycewl8xb" class="animable"></path><path d="M147.52,427a4.76,4.76,0,0,0,.75-1.15,9.59,9.59,0,0,1-4.4,1.19c-3.65.05-15.18-3.57-19.87-6.25-3.86-2.2-8.61-2.14-10.18-2.05a2.91,2.91,0,0,0,2.47,2.78c3,.87,3.36-.37,3.36-.37A43.39,43.39,0,0,0,134.33,427C143.54,428.94,145.28,429.56,147.52,427Z" style="fill: rgb(38, 50, 56); stroke: rgb(38, 50, 56); stroke-linecap: round; stroke-linejoin: round; transform-origin: 131.045px 423.701px 0px;" id="el47acwxp0ms5" class="animable"></path><path d="M161,280.85s-1,14.93-4.48,37.58S144,358,143.54,366.59s-.25,25.51-.25,29,1.12,2.36,1.24,5.47,0,7.22,0,7.22a42.85,42.85,0,0,1-6.34,2.49,30.62,30.62,0,0,1-3.74.75s.5,1-2.11-5.35-3.73-17.43-3.73-28.25,4.72-30.12,6.47-41.07,6.72-39,7.21-44.8a59,59,0,0,1,2.37-11.58,33.77,33.77,0,0,0,9.46,0C159.09,279.73,161,280.85,161,280.85Z" style="fill: rgb(38, 50, 56); stroke: rgb(38, 50, 56); stroke-linecap: round; stroke-linejoin: round; transform-origin: 144.805px 345.897px 0px;" id="elxzgce56kyva" class="animable"></path><path d="M110.06,279.11s2.87,53.63,1,62.34-3,10.21-2.86,17.55,1.37,36.09,2.86,44.55,3,8.84,2.74,11.08.49,3.86,1,4.23.38,1.87,7.22-.62a137.71,137.71,0,0,0,12.82-5.48,51.34,51.34,0,0,0,.37-7.84c0-5.85-3-10.2-3-14.68s-1-24.64,2.74-38.71,8.59-44.3,9.83-53.14,1.75-13.81,1.75-13.81A75.9,75.9,0,0,1,127,281.72c-10.58-3-17.18-4.61-17.42-3.73A.85.85,0,0,0,110.06,279.11Z" style="fill: rgb(38, 50, 56); stroke: rgb(38, 50, 56); stroke-linecap: round; stroke-linejoin: round; transform-origin: 127.359px 348.698px 0px;" id="elyw8zp7ymcgb" class="animable"></path><path d="M136.8,407.4c-.1,1.46-.1,2.48-.1,2.48" style="fill: none; stroke: rgb(255, 255, 255); stroke-linecap: round; stroke-linejoin: round; stroke-width: 0.75px; transform-origin: 136.75px 408.64px 0px;" id="eluvx3nnnewzr" class="animable"></path><path d="M146.62,293.68s-5.29,27.62-8.3,47.23S130,380.11,136.06,399a9.32,9.32,0,0,1,1,5.33" style="fill: none; stroke: rgb(255, 255, 255); stroke-linecap: round; stroke-linejoin: round; stroke-width: 0.75px; transform-origin: 139.952px 349.005px 0px;" id="els9qw7j058z8" class="animable"></path><path d="M123.11,167.41s-20.5,8.1-24.61,10.21-4.78,6-4.9,8.73S104.7,239,104.7,239l-2.85,41.6s28.25,10.08,34.1,10.33,10.2.25,10.2.25l3-7.35,1.62,7s5.1-1.86,9.7-4,10.21-7.71,10.58-7.59S164.57,246,164.57,246s1-58.07-.6-62.8-21.51-12.39-21.51-12.39-7.26-.6-11.37-1.22S124.23,166.79,123.11,167.41Z" style="fill: rgb(38, 50, 56); stroke: rgb(38, 50, 56); stroke-linecap: round; stroke-linejoin: round; transform-origin: 132.332px 229.24px 0px;" id="el2t7nguscvu6" class="animable"></path><path d="M111.09,284.08s11.7,4.21,18.28,5.53a106.22,106.22,0,0,0,15.88,1.44l3.89-7.22,1.62,7,8.44-3.36" style="fill: none; stroke: rgb(255, 255, 255); stroke-linecap: round; stroke-linejoin: round; stroke-width: 0.75px; transform-origin: 135.145px 287.44px 0px;" id="elvo04dfcqx5r" class="animable"></path><path d="M163.74,193.23s3.36,15.5,2.84,24.53" style="fill: none; stroke: rgb(255, 255, 255); stroke-linecap: round; stroke-linejoin: round; stroke-width: 0.75px; transform-origin: 165.187px 205.495px 0px;" id="elxfrkrtex6gn" class="animable"></path><path d="M131.09,169.59c-4.1-.62-7.09-1-8.21-.37l-.65.41,14.22,48.25,5.1,7.71,4.1-11.57S147,195.85,147,187.89a133.7,133.7,0,0,0-.84-13.87c-2-.89-3.26-1.44-3.26-1.44A114.42,114.42,0,0,0,131.09,169.59Z" style="fill: rgb(255, 255, 255); stroke: rgb(38, 50, 56); stroke-linecap: round; stroke-linejoin: round; transform-origin: 134.615px 197.243px 0px;" id="el0xvplsxw1re" class="animable"></path><path d="M132.34,183.41l6.59,8.21-2.48,26.26,5.1,7.71s3.61-11.69,3.61-11.32-4.23-24-4.23-24l4.23-7.59-4.61-8.59Z" style="fill: rgb(38, 50, 56); stroke: rgb(38, 50, 56); stroke-linecap: round; stroke-linejoin: round; transform-origin: 138.75px 199.84px 0px;" id="el6sdklzzgr2q" class="animable"></path><polygon points="141.05 178.3 147.02 187.89 146.77 171.83 142.42 167.6 141.05 178.3" style="fill: rgb(255, 255, 255); stroke: rgb(38, 50, 56); stroke-linecap: round; stroke-linejoin: round; transform-origin: 144.035px 177.745px 0px;" id="elbat03bgtpk4" class="animable"></polygon><path d="M127.11,148.81s.13,19.66.13,20.53,12.94,15.06,12.94,15.06l5.1-21.9s-9.71-3.11-12.44-7.09S127.73,147.94,127.11,148.81Z" style="fill: rgb(255, 255, 255); stroke: rgb(38, 50, 56); stroke-linecap: round; stroke-linejoin: round; transform-origin: 136.195px 166.538px 0px;" id="el3kw3nksfis6" class="animable"></path><polygon points="126.36 163.25 138.06 176.56 131.34 189.63 121.89 168.47 126.36 163.25" style="fill: rgb(255, 255, 255); stroke: rgb(38, 50, 56); stroke-linecap: round; stroke-linejoin: round; transform-origin: 129.975px 176.44px 0px;" id="elz3wkf4hkuc8" class="animable"></polygon><polygon points="138.06 176.56 140.18 184.4 135.57 181.54 138.06 176.56" style="fill: rgb(255, 255, 255); stroke: rgb(38, 50, 56); stroke-linecap: round; stroke-linejoin: round; transform-origin: 137.875px 180.48px 0px;" id="elm0so1n3h5k" class="animable"></polygon><polygon points="141.03 241.91 141.11 241.39 141.93 236.16 137.42 237.12 141.03 241.91" style="fill: rgb(255, 255, 255); stroke: rgb(38, 50, 56); stroke-linecap: round; stroke-linejoin: round; transform-origin: 139.675px 239.035px 0px;" id="elpknmz6v1bs" class="animable"></polygon><polygon points="138.27 243.89 139.38 241.8 136.76 242.01 138.27 243.89" style="fill: rgb(19, 99, 223); stroke: rgb(38, 50, 56); stroke-linecap: round; stroke-linejoin: round; transform-origin: 138.07px 242.845px 0px;" id="el6i9xna4b1wq" class="animable"></polygon><path d="M136.59,229.94c.5-.45,6.23-1.11,8.68-1.78a55.83,55.83,0,0,1,8.45-.89l11.56,5.34s1.56.89-.44,1.56-10-2.23-10-2.23,3.56,3.78,3.56,4.67-5.56,5.34-7.34,6-5.78,0-6.45-.22-1.78-1.56-.22-1.56h1.55a42.48,42.48,0,0,0-4.44-1.78,8.39,8.39,0,0,1-3.12-2.22h-2.89S134.15,232.16,136.59,229.94Z" style="fill: rgb(255, 255, 255); stroke: rgb(38, 50, 56); stroke-linecap: round; stroke-linejoin: round; transform-origin: 150.491px 235.083px 0px;" id="eltkj0v8zu07j" class="animable"></path><path d="M150.83,232.83s4.45,3.34,4.45,4.23-.23,2.67-.23,2.67" style="fill: none; stroke: rgb(38, 50, 56); stroke-linecap: round; stroke-linejoin: round; transform-origin: 153.055px 236.28px 0px;" id="eln2oac810vaq" class="animable"></path><path d="M147.94,235.06a21.32,21.32,0,0,1,3.55,3.33c.67,1.11-.44,4.23-.44,4.23" style="fill: none; stroke: rgb(38, 50, 56); stroke-linecap: round; stroke-linejoin: round; transform-origin: 149.823px 238.84px 0px;" id="elz3rx2fpq4l" class="animable"></path><line x1="154.83" y1="231.94" x2="152.83" y2="230.39" style="fill: none; stroke: rgb(38, 50, 56); stroke-linecap: round; stroke-linejoin: round; transform-origin: 153.83px 231.165px 0px;" id="elx8zpxoska4" class="animable"></line><path d="M134.57,229.13l4.57.17s-1.31,1.8-.54,5.74a25.63,25.63,0,0,0,2.43,6.87l-5.45.29S129.7,235.15,134.57,229.13Z" style="fill: rgb(255, 255, 255); stroke: rgb(38, 50, 56); stroke-linecap: round; stroke-linejoin: round; transform-origin: 136.835px 235.665px 0px;" id="elurmk8buxmji" class="animable"></path><path d="M116,204l-2.78,26.11L135.35,229s-1,5.69-.16,8.91a17.67,17.67,0,0,0,3.08,6A78.17,78.17,0,0,1,118.08,249a171.62,171.62,0,0,1-20.38,1,7.65,7.65,0,0,1-7.16-7.13c-1.05-16.05,2-57.5,2.23-60.27.34-3.45,4.28-4.71,6.27-4.49s8.66,4.77,11.19,10.66" style="fill: rgb(38, 50, 56); stroke: rgb(38, 50, 56); stroke-linecap: round; stroke-linejoin: round; transform-origin: 114.295px 214.048px 0px;" id="elenwaraoy4o4" class="animable"></path><polyline points="115.9 208.78 113.21 230.08 134.57 229.13" style="fill: none; stroke: rgb(255, 255, 255); stroke-linecap: round; stroke-linejoin: round; stroke-width: 0.75px; transform-origin: 123.89px 219.43px 0px;" id="ell4mj49irg7" class="animable"></polyline><path d="M113.21,230.08s-6.7.83-9.58,4.2" style="fill: none; stroke: rgb(255, 255, 255); stroke-linecap: round; stroke-linejoin: round; stroke-width: 0.75px; transform-origin: 108.42px 232.18px 0px;" id="elka2l6o0xjxr" class="animable"></path><path d="M104.35,230.67s-5.77,2.65-6.74,6.5" style="fill: none; stroke: rgb(255, 255, 255); stroke-linecap: round; stroke-linejoin: round; stroke-width: 0.75px; transform-origin: 100.98px 233.92px 0px;" id="eliqxgk79p92i" class="animable"></path><path d="M137.79,244.62s-21.65,4.81-31.28,5.06" style="fill: none; stroke: rgb(255, 255, 255); stroke-linecap: round; stroke-linejoin: round; stroke-width: 0.75px; transform-origin: 122.15px 247.15px 0px;" id="elt69j4r5q94f" class="animable"></path><path d="M161.18,130.18s-.7,6.7-3.11,20-5.37,20.65-10.29,19.89-16.07-5.55-18.48-9a16.47,16.47,0,0,1-2.45-8.16s-4.1.27-4.85-4.67,1.64-7.67,3.63-8.19,5.89,1.69,6.79-2.57-3-8.13-.06-10.89,10.28-3.71,17-2.37a28.78,28.78,0,0,1,11.55,5.37Z" style="fill: rgb(255, 255, 255); stroke: rgb(38, 50, 56); stroke-linecap: round; stroke-linejoin: round; transform-origin: 141.519px 146.871px 0px;" id="elambw30hqivt" class="animable"></path><path d="M148.45,146.07v2.35a4.07,4.07,0,0,1-5.48-1.17" style="fill: none; stroke: rgb(38, 50, 56); stroke-linecap: round; stroke-linejoin: round; transform-origin: 145.71px 147.544px 0px;" id="elpczmq22oct" class="animable"></path><path d="M157.84,147.24v2.35a4.32,4.32,0,0,1-3.63.33" style="fill: none; stroke: rgb(38, 50, 56); stroke-linecap: round; stroke-linejoin: round; transform-origin: 156.025px 148.707px 0px;" id="el9p9m6qvvpab" class="animable"></path><path d="M151.58,159.38s-2.74-.78-5.09-1.56" style="fill: none; stroke: rgb(38, 50, 56); stroke-linecap: round; stroke-linejoin: round; transform-origin: 149.035px 158.6px 0px;" id="el820ds46eqm" class="animable"></path><path d="M153.52,147.26s1.29,7.56.85,8.62-4-.41-4-.41" style="fill: none; stroke: rgb(38, 50, 56); stroke-linecap: round; stroke-linejoin: round; transform-origin: 152.416px 151.762px 0px;" id="el76vithupces" class="animable"></path><path d="M142.09,140.51s2.48-3.22,7-1" style="fill: none; stroke: rgb(38, 50, 56); stroke-linecap: round; stroke-linejoin: round; transform-origin: 145.59px 139.62px 0px;" id="ela5mveh23vu" class="animable"></path><path d="M154.38,141.09s2.87-1.89,4.22,1.14" style="fill: none; stroke: rgb(38, 50, 56); stroke-linecap: round; stroke-linejoin: round; transform-origin: 156.49px 141.369px 0px;" id="el5mct1unk17" class="animable"></path><path d="M165.27,205.63,154,243a3.22,3.22,0,0,0,3.42,4.13l18.9-2a3.21,3.21,0,0,0,2.71-2.17l11.73-34.8a3.22,3.22,0,0,0-2.94-4.24l-19.4-.66A3.22,3.22,0,0,0,165.27,205.63Z" style="fill: rgb(19, 99, 223); stroke: rgb(38, 50, 56); stroke-linecap: round; stroke-linejoin: round; transform-origin: 172.395px 225.204px 0px;" id="el1m8b0bd0x7h" class="animable"></path><path d="M186.48,225.43s-4.91-2.74-6.82-2.19A2.23,2.23,0,0,0,178,225.7l6.55,2.73s-9.28-1.64-10.65-1.64-2.18,2.19-.82,2.73l0,0c1.46.56,9.25,2.17,9.25,2.17s-9.84-2.19-10.11-.82,3,2.18,3,2.18-.55,2.19.54,2.46,4.92,1.91,4.92,1.91,1.36.55,3.27,1.09,3.56-5.18,4.37-7.37S186.48,225.43,186.48,225.43Z" style="fill: rgb(255, 255, 255); stroke: rgb(38, 50, 56); stroke-linecap: round; stroke-linejoin: round; transform-origin: 180.339px 230.856px 0px;" id="elmeixa16ryue" class="animable"></path><line x1="175.29" y1="233.07" x2="181.29" y2="234.98" style="fill: rgb(255, 255, 255); stroke: rgb(38, 50, 56); stroke-linecap: round; stroke-linejoin: round; transform-origin: 178.29px 234.025px 0px;" id="el4qspewn2sk" class="animable"></line><path d="M127,139.82s3,2.38,3.26,3.57,1.19,2.67,2.68,1.18.89-3.56,3.86-6.83-.89-5.35-.89-8,5-4.46,10.1-3.87,5.35,3.27,7.73,3.57a69.62,69.62,0,0,0,7.21.2l-.38,3.07s2.08.59,6.24-3.57-2.67-8.61-2.67-8.61,0-.6-5.05-6-10.7-5.94-21.1-3.26-16.94,9.5-18.72,12.47,4.76,16,4.76,16Z" style="fill: rgb(38, 50, 56); stroke: rgb(38, 50, 56); stroke-linecap: round; stroke-linejoin: round; transform-origin: 143.558px 127.448px 0px;" id="elg9btob4o0ql" class="animable"></path><path d="M153.69,129.42a8.17,8.17,0,0,0,6.24-5.94c1.19-5-1.49-9.51-7.73-11.29" style="fill: none; stroke: rgb(255, 255, 255); stroke-linecap: round; stroke-linejoin: round; transform-origin: 156.203px 120.805px 0px;" id="el3ngqv53hcqr" class="animable"></path><path d="M152.8,127.64s1.48-8.92-5.35-11.29-16.64,2.08-21.69,6.53" style="fill: none; stroke: rgb(255, 255, 255); stroke-linecap: round; stroke-linejoin: round; transform-origin: 139.348px 121.665px 0px;" id="el76zzrthd7qa" class="animable"></path><path d="M125.47,134.14C124.56,135.23,124,136,124,136" style="fill: none; stroke: rgb(255, 255, 255); stroke-linecap: round; stroke-linejoin: round; transform-origin: 124.735px 135.07px 0px;" id="ellemglpmplj8" class="animable"></path><path d="M142.4,125.85s-6.42-2.62-10,.77c-1.52,1.42-3.23,3.28-4.71,5" style="fill: none; stroke: rgb(255, 255, 255); stroke-linecap: round; stroke-linejoin: round; transform-origin: 135.045px 128.252px 0px;" id="el7b3044krdr6" class="animable"></path></g><defs>     <filter id="active" height="200%">         <feMorphology in="SourceAlpha" result="DILATED" operator="dilate" radius="2"></feMorphology>                <feFlood flood-color="#32DFEC" flood-opacity="1" result="PINK"></feFlood>        <feComposite in="PINK" in2="DILATED" operator="in" result="OUTLINE"></feComposite>        <feMerge>            <feMergeNode in="OUTLINE"></feMergeNode>            <feMergeNode in="SourceGraphic"></feMergeNode>        </feMerge>    </filter>    <filter id="hover" height="200%">        <feMorphology in="SourceAlpha" result="DILATED" operator="dilate" radius="2"></feMorphology>                <feFlood flood-color="#ff0000" flood-opacity="0.5" result="PINK"></feFlood>        <feComposite in="PINK" in2="DILATED" operator="in" result="OUTLINE"></feComposite>        <feMerge>            <feMergeNode in="OUTLINE"></feMergeNode>            <feMergeNode in="SourceGraphic"></feMergeNode>        </feMerge>            <feColorMatrix type="matrix" values="0   0   0   0   0                0   1   0   0   0                0   0   0   0   0                0   0   0   1   0 "></feColorMatrix>    </filter></defs></svg>